<svg width="16" height="20" viewBox="0 0 16 20" fill="none" xmlns="http://www.w3.org/2000/svg">
<path d="M8 19.9004C7.88333 19.9004 7.775 19.8921 7.675 19.8754C7.575 19.8587 7.475 19.8337 7.375 19.8004C5.125 19.0504 3.33333 17.6631 2 15.6384C0.666667 13.6137 0 11.4344 0 9.10039V4.37539C0 3.95872 0.121 3.58372 0.363 3.25039C0.605 2.91706 0.917333 2.67539 1.3 2.52539L7.3 0.275391C7.53333 0.192057 7.76667 0.150391 8 0.150391C8.23333 0.150391 8.46667 0.192057 8.7 0.275391L14.7 2.52539C15.0833 2.67539 15.396 2.91706 15.638 3.25039C15.88 3.58372 16.0007 3.95872 16 4.37539V9.10039C16 11.4337 15.3333 13.6131 14 15.6384C12.6667 17.6637 10.875 19.0511 8.625 19.8004C8.525 19.8337 8.425 19.8587 8.325 19.8754C8.225 19.8921 8.11667 19.9004 8 19.9004ZM8 17.9004C9.73333 17.3504 11.1667 16.2504 12.3 14.6004C13.4333 12.9504 14 11.1171 14 9.10039V4.37539L8 2.12539L2 4.37539V9.10039C2 11.1171 2.56667 12.9504 3.7 14.6004C4.83333 16.2504 6.26667 17.3504 8 17.9004Z" fill="#F3F5FB"/>
</svg>
