<svg width="21" height="18" viewBox="0 0 21 18" fill="none" xmlns="http://www.w3.org/2000/svg">
<path d="M2.33326 10C2.33326 12.21 3.22826 14.21 4.67626 15.657L3.26326 17.07C2.33328 16.1426 1.59569 15.0406 1.09287 13.8273C0.590047 12.614 0.331901 11.3134 0.333257 10C0.333257 4.477 4.81026 0 10.3333 0C15.8563 0 20.3333 4.477 20.3333 10C20.3349 11.3135 20.077 12.6143 19.5743 13.8278C19.0716 15.0412 18.3342 16.1434 17.4043 17.071L15.9903 15.657C16.9205 14.7267 17.607 13.5814 17.9888 12.3224C18.3707 11.0635 18.4362 9.72979 18.1795 8.43949C17.9229 7.14918 17.3519 5.94209 16.5173 4.92513C15.6827 3.90817 14.6102 3.11273 13.3948 2.60927C12.1793 2.10581 10.8585 1.90987 9.54922 2.0388C8.23997 2.16774 6.98272 2.61756 5.88883 3.34844C4.79495 4.07932 3.89819 5.06869 3.278 6.22892C2.6578 7.38914 2.33331 8.68441 2.33326 10ZM7.04026 5.293L11.5403 9.793L10.1263 11.207L5.62626 6.707L7.04026 5.293Z" fill="#F3F5FB"/>
</svg>
