<svg width="12" height="14" viewBox="0 0 12 14" fill="none" xmlns="http://www.w3.org/2000/svg">
<path fill-rule="evenodd" clip-rule="evenodd" d="M5.69316 13.4007C5.7133 13.4124 5.72913 13.4214 5.74034 13.4277L5.75895 13.4381C5.90753 13.5196 6.09184 13.519 6.24056 13.4383L6.25966 13.4277C6.27087 13.4214 6.2867 13.4124 6.30684 13.4007C6.34711 13.3774 6.40465 13.3433 6.477 13.2988C6.62164 13.2097 6.82583 13.0784 7.06974 12.9061C7.55673 12.5621 8.2065 12.0516 8.8577 11.3849C10.1538 10.0579 11.5 8.06411 11.5 5.5C11.5 2.46243 9.03757 0 6 0C2.96243 0 0.5 2.46243 0.5 5.5C0.5 8.06411 1.84622 10.0579 3.1423 11.3849C3.7935 12.0516 4.44327 12.5621 4.93026 12.9061C5.17417 13.0784 5.37836 13.2097 5.523 13.2988C5.59535 13.3433 5.65289 13.3774 5.69316 13.4007ZM6 7.5C7.10457 7.5 8 6.60457 8 5.5C8 4.39543 7.10457 3.5 6 3.5C4.89543 3.5 4 4.39543 4 5.5C4 6.60457 4.89543 7.5 6 7.5Z" fill="#4560E9"/>
</svg>
