<svg width="28" height="26" viewBox="0 0 28 26" fill="none" xmlns="http://www.w3.org/2000/svg">
<g clip-path="url(#clip0_1_3233)">
<path d="M6.89111 14.4286C8.42502 14.4286 9.94395 14.6751 11.0591 15.1367C12.2081 15.6123 12.7417 16.2257 12.7417 16.8691V19.8095C12.7417 20.4529 12.2081 21.0663 11.0591 21.5419C9.94395 22.0035 8.42502 22.2499 6.89111 22.2499C5.35734 22.2499 3.83916 22.0035 2.72412 21.5419C1.57499 21.0663 1.0415 20.4529 1.0415 19.8095V16.8691C1.04153 16.2257 1.57498 15.6123 2.72412 15.1367C3.83916 14.6751 5.35734 14.4287 6.89111 14.4286ZM11.9009 18.1562C10.8111 18.9 8.88949 19.3093 6.88818 19.3085C4.88682 19.3078 2.96692 18.8972 1.88135 18.1562L1.1001 17.623V19.8095C1.1001 20.1728 1.3459 20.4828 1.59619 20.7031C1.8718 20.9456 2.26428 21.1797 2.76904 21.3837C3.92735 21.8518 5.42447 22.0745 6.89404 22.0742C8.36358 22.0738 9.85916 21.8505 11.0142 21.3837C11.5188 21.1797 11.9114 20.9455 12.187 20.7031C12.4373 20.4828 12.6831 20.1728 12.6831 19.8095V17.623L11.9009 18.1562ZM6.88916 14.6044C5.4196 14.6048 3.92406 14.8281 2.76904 15.2949C2.26426 15.4989 1.87181 15.733 1.59619 15.9755C1.37719 16.1683 1.16141 16.4296 1.11084 16.7353L1.1001 16.8691L1.11084 17.0029C1.16137 17.3086 1.37719 17.5699 1.59619 17.7626C1.8718 18.0052 2.26428 18.2393 2.76904 18.4433C3.92735 18.9114 5.42447 19.1341 6.89404 19.1337C8.36358 19.1334 9.85916 18.9101 11.0142 18.4433C11.5189 18.2393 11.9114 18.0051 12.187 17.7626C12.4373 17.5423 12.6831 17.2324 12.6831 16.8691C12.6831 16.5058 12.4373 16.1958 12.187 15.9755C11.9114 15.733 11.5189 15.4989 11.0142 15.2949C9.85588 14.8268 8.3587 14.6041 6.88916 14.6044Z" fill="#F3F5FB" stroke="#F3F5FB"/>
<path d="M20.6494 2.66669C22.1833 2.66669 23.7023 2.91313 24.8174 3.37469C25.9664 3.85035 26.5 4.46374 26.5 5.10712V19.8093C26.5 20.4526 25.9664 21.066 24.8174 21.5417C23.7023 22.0032 22.1833 22.2497 20.6494 22.2497C19.1156 22.2497 17.5974 22.0032 16.4824 21.5417C15.3333 21.066 14.7998 20.4527 14.7998 19.8093V5.10712C14.7998 4.46372 15.3333 3.85036 16.4824 3.37469C17.5974 2.91317 19.1156 2.66673 20.6494 2.66669ZM25.6592 18.1559C24.5694 18.8997 22.6478 19.309 20.6465 19.3083C18.6451 19.3075 16.7252 18.8969 15.6396 18.1559L14.8584 17.6227V19.8093C14.8584 20.1725 15.1042 20.4825 15.3545 20.7028C15.6301 20.9453 16.0226 21.1795 16.5273 21.3835C17.6857 21.8515 19.1828 22.0752 20.6523 22.0749C22.1219 22.0746 23.6175 21.8502 24.7725 21.3835C25.2771 21.1795 25.6697 20.9453 25.9453 20.7028C26.1955 20.4825 26.4414 20.1725 26.4414 19.8093V17.6227L25.6592 18.1559ZM25.6592 15.2155C24.5694 15.9593 22.6478 16.3686 20.6465 16.3679C18.6451 16.3671 16.7252 15.9565 15.6396 15.2155L14.8584 14.6823V16.8688C14.8584 17.2321 15.1042 17.5421 15.3545 17.7624C15.6301 18.0049 16.0226 18.239 16.5273 18.4431C17.6857 18.9111 19.1828 19.1348 20.6523 19.1345C22.1219 19.1341 23.6175 18.9098 24.7725 18.4431C25.2771 18.2391 25.6697 18.0049 25.9453 17.7624C26.1956 17.5421 26.4414 17.2321 26.4414 16.8688V14.6823L25.6592 15.2155ZM25.6592 12.2751C24.5694 13.0189 22.6478 13.4282 20.6465 13.4274C18.6451 13.4267 16.7252 13.016 15.6396 12.2751L14.8584 11.7419V13.9284C14.8584 14.2917 15.1042 14.6017 15.3545 14.822C15.6301 15.0645 16.0226 15.2986 16.5273 15.5026C17.6857 15.9707 19.1828 16.1944 20.6523 16.194C22.1219 16.1937 23.6175 15.9694 24.7725 15.5026C25.2771 15.2986 25.6697 15.0644 25.9453 14.822C26.1956 14.6017 26.4414 14.2917 26.4414 13.9284V11.7419L25.6592 12.2751ZM25.6592 9.33466C24.5694 10.0784 22.6478 10.4877 20.6465 10.487C18.6451 10.4862 16.7252 10.0756 15.6396 9.33466L14.8584 8.80145V10.988C14.8584 11.3513 15.1042 11.6612 15.3545 11.8815C15.6301 12.124 16.0226 12.3582 16.5273 12.5622C17.6857 13.0303 19.1828 13.253 20.6523 13.2526C22.1219 13.2523 23.6176 13.0289 24.7725 12.5622C25.2771 12.3582 25.6697 12.124 25.9453 11.8815C26.1956 11.6612 26.4414 11.3512 26.4414 10.988V8.80145L25.6592 9.33466ZM25.6592 6.39423C24.5694 7.13799 22.6478 7.54729 20.6465 7.54657C18.6451 7.54581 16.7252 7.13519 15.6396 6.39423L14.8584 5.86102V8.04755C14.8584 8.41086 15.1042 8.7208 15.3545 8.9411C15.6301 9.18361 16.0226 9.41778 16.5273 9.62177C17.6838 10.0891 19.1799 10.3122 20.6494 10.3122C22.119 10.3122 23.6157 10.0892 24.7725 9.62177C25.2772 9.4178 25.6697 9.18358 25.9453 8.9411C26.1956 8.72081 26.4414 8.41081 26.4414 8.04755V5.86102L25.6592 6.39423ZM20.6504 2.84247C19.1808 2.84245 17.6841 3.06543 16.5273 3.5329C16.0226 3.73688 15.6301 3.97105 15.3545 4.21356C15.1355 4.4063 14.9197 4.66765 14.8691 4.97333L14.8584 5.10712L14.8691 5.24091C14.9197 5.54661 15.1355 5.80792 15.3545 6.00067C15.6301 6.24318 16.0226 6.47735 16.5273 6.68134C17.6838 7.14868 19.1799 7.37172 20.6494 7.37177C22.119 7.37179 23.6157 7.1488 24.7725 6.68134C25.2772 6.47737 25.6697 6.24315 25.9453 6.00067C26.1956 5.78038 26.4414 5.47039 26.4414 5.10712C26.4414 4.74383 26.1956 4.43385 25.9453 4.21356C25.6697 3.97107 25.2772 3.73687 24.7725 3.5329C23.6161 3.06557 22.1199 2.84253 20.6504 2.84247Z" fill="#F3F5FB" stroke="#F3F5FB"/>
</g>
<defs>
<clipPath id="clip0_1_3233">
<rect width="27" height="26" fill="white" transform="translate(0.166748)"/>
</clipPath>
</defs>
</svg>
