<svg width="14" height="15" viewBox="0 0 14 15" fill="none" xmlns="http://www.w3.org/2000/svg">
<path fill-rule="evenodd" clip-rule="evenodd" d="M0 2.5C0 1.39543 0.895431 0.5 2 0.5H2.91442C3.488 0.5 3.98798 0.890371 4.1271 1.44683L4.86429 4.39562C4.98627 4.88353 4.80396 5.39703 4.40162 5.69879L3.5392 6.3456C3.44965 6.41277 3.43018 6.51112 3.45533 6.57979C4.21234 8.64632 5.85368 10.2877 7.92021 11.0447C7.98888 11.0698 8.08724 11.0504 8.1544 10.9608L8.80121 10.0984C9.10297 9.69604 9.61647 9.51373 10.1044 9.63571L13.0532 10.3729C13.6096 10.512 14 11.012 14 11.5856V12.5C14 13.6046 13.1046 14.5 12 14.5H10.5C4.70101 14.5 0 9.79899 0 4V2.5Z" fill="#4560E9"/>
</svg>
